<?xml version="1.0" encoding="iso-8859-1"?>
<!-- Generator: Adobe Illustrator 19.0.0, SVG Export Plug-In . SVG Version: 6.00 Build 0)  -->
<svg version="1.1" id="Capa_1" xmlns="http://www.w3.org/2000/svg" xmlns:xlink="http://www.w3.org/1999/xlink" x="0px" y="0px"
	 viewBox="0 0 508 508" style="enable-background:new 0 0 508 508;" xml:space="preserve">
<polygon style="fill:#FF7058;" points="421.8,0 421.8,70.4 387.4,87 351.2,104.5 254,151.4 156.8,104.5 120.6,87 86.3,70.4 86.3,0 
	"/>
<circle style="fill:#FFD15C;" cx="254" cy="329.7" r="178.3"/>
<circle style="fill:#F8B64C;" cx="254" cy="329.7" r="128.9"/>
<path style="fill:#FFFFFF;" d="M341.8,304.8h-59.4c-2.3,0-4.3-1.5-5-3.6L259,244.6c-1.6-4.8-8.4-4.8-10,0l-18.4,56.5
	c-0.7,2.2-2.7,3.6-5,3.6h-59.4c-5.1,0-7.2,6.5-3.1,9.5l48.1,34.9c1.8,1.3,2.6,3.7,1.9,5.9l-18.4,56.5c-1.6,4.8,4,8.9,8.1,5.9
	l48.1-34.9c1.8-1.3,4.3-1.3,6.2,0l48.1,34.9c4.1,3,9.6-1,8.1-5.9L294.9,355c-0.7-2.2,0.1-4.5,1.9-5.9l48.1-34.9
	C349,311.3,346.9,304.8,341.8,304.8z"/>
<g>
	<polygon style="fill:#F1543F;" points="156.8,0 156.8,104.5 120.6,87 120.6,0 	"/>
	<polygon style="fill:#F1543F;" points="387.4,0 387.4,87 351.2,104.5 351.2,0 	"/>
</g>
<g>
</g>
<g>
</g>
<g>
</g>
<g>
</g>
<g>
</g>
<g>
</g>
<g>
</g>
<g>
</g>
<g>
</g>
<g>
</g>
<g>
</g>
<g>
</g>
<g>
</g>
<g>
</g>
<g>
</g>
</svg>
