<svg width="300" height="300" viewBox="0 0 300 300" fill="none" xmlns="http://www.w3.org/2000/svg">
<path d="M168.047 181.141V251.453H55.5469V181.141C55.5469 175.546 57.7692 170.181 61.7251 166.225C65.6809 162.269 71.0462 160.047 76.6406 160.047H146.953C152.548 160.047 157.913 162.269 161.869 166.225C165.825 170.181 168.047 175.546 168.047 181.141Z" fill="#FDB62F"/>
<path d="M97.7344 145.984H125.859V160.047C125.859 163.776 124.378 167.353 121.741 169.991C119.103 172.628 115.526 174.109 111.797 174.109C108.067 174.109 104.49 172.628 101.853 169.991C99.216 167.353 97.7344 163.776 97.7344 160.047V145.984Z" fill="#FFDAAA"/>
<path d="M111.797 47.5469C97.8108 47.5469 84.3977 53.1028 74.508 62.9924C64.6184 72.882 59.0625 86.2952 59.0625 100.281V145.984H164.531V100.281C164.531 86.2952 158.975 72.882 149.086 62.9924C139.196 53.1028 125.783 47.5469 111.797 47.5469V47.5469Z" fill="#784A42"/>
<path d="M76.6406 103.797H66.0938C64.2289 103.797 62.4405 104.538 61.1219 105.856C59.8033 107.175 59.0625 108.963 59.0625 110.828V110.828C59.0625 112.693 59.8033 114.481 61.1219 115.8C62.4405 117.119 64.2289 117.859 66.0938 117.859H76.6406V103.797Z" fill="#FFDAAA"/>
<path d="M146.953 103.797H157.5C159.365 103.797 161.153 104.538 162.472 105.856C163.79 107.175 164.531 108.963 164.531 110.828C164.531 112.693 163.79 114.481 162.472 115.8C161.153 117.119 159.365 117.859 157.5 117.859H146.953V103.797Z" fill="#FFDAAA"/>
<path d="M150.469 114.344V89.7344H73.125V114.344C73.125 124.6 77.1993 134.437 84.4517 141.689C91.7041 148.941 101.54 153.016 111.797 153.016C116.875 153.016 121.904 152.015 126.596 150.072C131.288 148.128 135.551 145.28 139.142 141.689C142.733 138.098 145.582 133.835 147.525 129.143C149.468 124.451 150.469 119.422 150.469 114.344V114.344Z" fill="#FFE9CC"/>
<path d="M104.766 114.344H97.7344V110.828C97.7344 109.896 97.364 109.002 96.7047 108.342C96.0454 107.683 95.1512 107.312 94.2188 107.312C93.2863 107.312 92.3921 107.683 91.7328 108.342C91.0735 109.002 90.7031 109.896 90.7031 110.828V114.344H83.6719V110.828C83.6719 108.031 84.7831 105.348 86.761 103.37C88.7389 101.392 91.4215 100.281 94.2188 100.281C97.016 100.281 99.6986 101.392 101.677 103.37C103.654 105.348 104.766 108.031 104.766 110.828V114.344Z" fill="#784A42"/>
<path d="M139.922 114.344H132.891V110.828C132.891 109.896 132.52 109.002 131.861 108.342C131.202 107.683 130.307 107.312 129.375 107.312C128.443 107.312 127.548 107.683 126.889 108.342C126.23 109.002 125.859 109.896 125.859 110.828V114.344H118.828V110.828C118.828 108.031 119.939 105.348 121.917 103.37C123.895 101.392 126.578 100.281 129.375 100.281C132.172 100.281 134.855 101.392 136.833 103.37C138.811 105.348 139.922 108.031 139.922 110.828V114.344Z" fill="#784A42"/>
<path d="M111.797 142.469C108.067 142.469 104.49 140.987 101.853 138.35C99.216 135.713 97.7344 132.136 97.7344 128.406V124.891H104.766V128.406C104.766 130.271 105.506 132.059 106.825 133.378C108.144 134.697 109.932 135.438 111.797 135.438C113.662 135.438 115.45 134.697 116.769 133.378C118.087 132.059 118.828 130.271 118.828 128.406V124.891H125.859V128.406C125.859 132.136 124.378 135.713 121.741 138.35C119.103 140.987 115.526 142.469 111.797 142.469Z" fill="#784A42"/>
<path d="M161.016 167.078H238.359C242.089 167.078 245.666 168.56 248.303 171.197C250.94 173.834 252.422 177.411 252.422 181.141V237.391H146.953V181.141C146.953 177.411 148.435 173.834 151.072 171.197C153.709 168.56 157.286 167.078 161.016 167.078Z" fill="#A7D6DD"/>
<path d="M139.922 237.391H259.453V244.422C259.453 246.287 258.712 248.075 257.394 249.394C256.075 250.712 254.287 251.453 252.422 251.453H146.953C145.088 251.453 143.3 250.712 141.981 249.394C140.663 248.075 139.922 246.287 139.922 244.422V237.391Z" fill="#6CBBC7"/>
<path d="M183.139 215.267L170.107 202.234L183.139 189.202L188.111 194.173L180.049 202.234L188.111 210.296L183.139 215.267Z" fill="#02998A"/>
<path d="M216.236 215.267L211.264 210.296L219.326 202.234L211.264 194.173L216.236 189.202L229.268 202.234L216.236 215.267Z" fill="#02998A"/>
<path d="M199.872 190.573L192.837 211.667L199.507 213.892L206.542 192.797L199.872 190.573Z" fill="#02998A"/>
<path d="M87.1875 202.234H80.1562V251.453H87.1875V202.234Z" fill="#F5CF68"/>
</svg>
