<svg height="507pt" viewBox="-89 0 507 507.77003" width="507pt" xmlns="http://www.w3.org/2000/svg"><path d="m284.730469 363.644531v7.421875c0 5.519532-4.480469 10-10 10h-220.679688c-5.519531 0-10-4.480468-10-10v-7.421875c0-66.457031 53.878907-120.339843 120.339844-120.339843 5.539063 0 11 .382812 16.339844 1.101562 26.699219 3.621094 50.621093 16 68.761719 34.140625 21.777343 21.777344 35.238281 51.859375 35.238281 85.097656zm0 0" fill="#d73735"/><path d="m284.730469 363.644531v7.421875c0 5.519532-4.480469 10-10 10h-188c-5.519531 0-10-4.480468-10-10v-7.421875c0-60.917969 45.28125-111.277343 104-119.238281 26.699219 3.621094 50.621093 16 68.761719 34.140625 21.777343 21.777344 35.238281 51.859375 35.238281 85.097656zm0 0" fill="#f85252"/><path d="m164.390625 284.796875c-14.222656 0-25.753906-11.53125-25.753906-25.757813v-57.242187h51.511719v57.242187c0 14.226563-11.535157 25.757813-25.757813 25.757813zm0 0" fill="#edaf85"/><path d="m60.9375 155.070312c0 12.328126 10.085938 22.410157 22.410156 22.410157h9.179688v-44.820313h-9.179688c-12.324218 0-22.410156 10.085938-22.410156 22.410156zm0 0" fill="#edaf85"/><path d="m245.433594 132.660156h-9.179688v44.820313h9.179688c12.324218 0 22.410156-10.082031 22.410156-22.410157 0-12.324218-10.085938-22.410156-22.410156-22.410156zm0 0" fill="#edaf85"/><path d="m238.332031 83.167969v86.117187c0 36.28125-26.460937 66.660156-61.0625 72.800782-4.179687.761718-8.480469 1.140624-12.878906 1.140624-40.679687 0-73.941406-33.261718-73.941406-73.941406v-86.117187c0-5.5 4.5-10 10-10h127.882812c5.5 0 10 4.5 10 10zm0 0" fill="#edaf85"/><path d="m238.332031 83.167969v86.117187c0 36.28125-26.460937 66.660156-61.0625 72.800782-34.597656-6.121094-61.078125-36.5-61.078125-72.800782v-86.117187c0-5.5 4.5-10 10-10h102.140625c5.5 0 10 4.5 10 10zm0 0" fill="#f7c09a"/><path d="m324.390625 307.105469v186.660156c0 5.519531-4.480469 10-10 10h-300c-5.519531 0-10-4.480469-10-10v-186.660156c0-5.519531 4.480469-10 10-10h300c5.519531 0 10 4.480469 10 10zm0 0" fill="#d8d6d7"/><path d="m324.390625 307.105469v186.660156c0 5.519531-4.480469 10-10 10h-257.578125c-5.523438 0-10-4.480469-10-10v-186.660156c0-5.519531 4.476562-10 10-10h257.578125c5.519531 0 10 4.480469 10 10zm0 0" fill="#fff"/><path d="m180.609375 362.347656h-32.433594c-3.574219 0-6.875 1.90625-8.660156 5l-16.214844 28.085938c-1.789062 3.09375-1.789062 6.90625 0 10l16.214844 28.089844c1.785156 3.09375 5.085937 5 8.660156 5h32.433594c3.570313 0 6.875-1.90625 8.660156-5l16.214844-28.089844c1.785156-3.09375 1.785156-6.90625 0-10l-16.214844-28.085938c-1.789062-3.09375-5.089843-5-8.660156-5zm0 0" fill="#d8d6d7"/><path d="m109.609375 69.367188v44.777343c0 10.222657-8.296875 18.523438-18.519531 18.523438-10.21875 0-18.519532-8.300781-18.519532-18.523438v-44.777343c0-10.222657 8.300782-18.519532 18.519532-18.519532 5.101562 0 9.742187 2.078125 13.101562 5.417969 3.339844 3.359375 5.417969 7.980469 5.417969 13.101563zm0 0" fill="#1c868e"/><path d="m109.609375 69.367188v20.4375c0 10.222656-8.296875 18.519531-18.519531 18.519531-10.21875 0-18.519532-8.296875-18.519532-18.519531v-20.4375c0-10.222657 8.300782-18.519532 18.519532-18.519532 5.101562 0 9.742187 2.078125 13.101562 5.417969 3.339844 3.359375 5.417969 7.980469 5.417969 13.101563zm0 0" fill="#40c4df"/><path d="m280.152344 12.027344-4.203125 14.640625-9.597657 33.476562c-8.160156 28.5-36.21875 49.023438-65.539062 44.582031l-84.640625-9.71875c-3.300781-.382812-5.882813-2.902343-6.460937-6.0625-.058594-.417968-.101563-.859374-.101563-1.300781v-18.277343c0-23.980469 19.441406-43.421876 43.421875-43.421876h64.941406c19.539063 0 38.398438-7.257812 52.878906-20.398437 1.179688-1.082031 2.539063-1.539063 3.839844-1.539063 3.738282 0 7.160156 3.777344 5.460938 8.019532zm0 0" fill="#40c4df"/><path d="m275.949219 26.667969-9.597657 33.476562c-8.160156 28.5-36.21875 49.023438-65.539062 44.582031l-84.640625-9.71875c-3.300781-.382812-5.882813-2.902343-6.460937-6.0625 1.5-22.621093 20.320312-40.5 43.320312-40.5h64.941406c19.539063 0 38.398438-7.257812 52.878906-20.398437 1.179688-1.082031 2.539063-1.539063 3.839844-1.539063.417969 0 .839844.039063 1.257813.160157zm0 0" fill="#1c868e"/><g fill="#491352"><path d="m137.882812 149.144531c0 5.472657-4.4375 9.90625-9.90625 9.90625-5.472656 0-9.910156-4.433593-9.910156-9.90625 0-5.472656 4.4375-9.910156 9.910156-9.910156 5.46875 0 9.90625 4.4375 9.90625 9.910156zm0 0"/><path d="m210.714844 149.144531c0 5.472657-4.4375 9.90625-9.90625 9.90625-5.472656 0-9.910156-4.433593-9.910156-9.90625 0-5.472656 4.4375-9.910156 9.910156-9.910156 5.46875 0 9.90625 4.4375 9.90625 9.910156zm0 0"/><path d="m184.160156 178.246094c0-5.285156-8-5.292969-8 0 0 6.488281-5.277344 11.769531-11.769531 11.769531-6.488281 0-11.769531-5.28125-11.769531-11.769531 0-5.285156-8-5.292969-8 0 0 10.902344 8.867187 19.769531 19.769531 19.769531s19.769531-8.867187 19.769531-19.769531zm0 0"/><path d="m314.398438 293.101562h-47.648438c-17.484375-25.40625-43.394531-43.023437-72.601562-50.199218v-1.59375c24.640624-10.21875 42.941406-32.71875 47.21875-59.828125h4.0625c14.5625 0 26.410156-11.84375 26.410156-26.410157 0-14.5625-11.84375-26.410156-26.410156-26.410156h-3.101563v-25.492187c0-1.3125-.1875-2.613281-.550781-3.859375 13.273437-8.503906 23.789062-21.890625 28.421875-38.070313l13.738281-47.9375c1.609375-4.273437.183594-8.871093-3.585938-11.496093-3.835937-2.667969-8.738281-2.351563-12.199218.785156-13.773438 12.480468-31.59375 19.359375-50.183594 19.359375h-64.949219c-20.964843 0-38.785156 13.683593-45.027343 32.589843-4.128907-4.703124-10.167969-7.691406-16.902344-7.691406-12.417969 0-22.515625 10.101563-22.515625 22.515625v44.785157c0 6.175781 2.5 11.777343 6.539062 15.847656-10.539062 3.46875-18.175781 13.390625-18.175781 25.078125 0 14.5625 11.84375 26.410156 26.410156 26.410156h4.0625c4.277344 27.109375 22.578125 49.609375 47.21875 59.824219v1.636718c-29.597656 7.238282-55.203125 24.917969-72.601562 50.160157h-47.640625c-7.722657 0-14 6.28125-14 14v186.664062c0 7.71875 6.277343 14 14 14h300.011719c7.71875 0 14-6.28125 14-14v-186.667969c0-7.71875-6.28125-14-14-14zm-72.066407-156.441406h3.101563c10.148437 0 18.410156 8.261719 18.410156 18.410156 0 10.152344-8.257812 18.410157-18.410156 18.410157h-3.21875c.15625-2.96875.117187-1.082031.117187-36.820313zm-128.722656-67.296875c0-21.734375 17.679687-39.417969 39.414063-39.417969h64.949218c20.582032 0 40.308594-7.609374 55.554688-21.429687.9375-.84375 1.816406-.453125 2.257812-.148437.445313.308593 1.117188 1 .648438 2.167968-.050782.125-.09375.253906-.132813.386719l-13.789062 48.113281c-7.847657 27.394532-34.695313 45.734375-61.25 41.722656l-84.632813-9.734374c-1.722656-.199219-3.023437-1.652344-3.023437-3.386719v-18.273438zm-30.261719 104.117188c-10.148437 0-18.410156-8.257813-18.410156-18.410157 0-10.148437 8.257812-18.410156 18.410156-18.410156h3.101563c0 35.890625-.039063 33.902344.117187 36.820313zm-6.773437-59.335938v-44.78125c0-8.003906 6.511719-14.515625 14.515625-14.515625s14.515625 6.511719 14.515625 14.515625v44.78125c0 8.003907-6.511719 14.515625-14.515625 14.515625s-14.515625-6.507812-14.515625-14.515625zm17.875 55.140625v-32.898437c10.824219-1.628907 19.160156-10.964844 19.160156-22.238281v-15.621094c.675781.210937 1.378906.363281 2.105469.445312 95.699218 11.003906 88.777344 10.34375 92.902344 10.34375 8.90625 0 17.664062-2.097656 25.714843-5.886718v65.855468c0 38.566406-31.378906 69.941406-69.941406 69.941406s-69.941406-31.375-69.941406-69.941406zm91.703125 74.828125v14.933594c0 11.996094-9.761719 21.757813-21.761719 21.757813-11.996094 0-21.757813-9.761719-21.757813-21.757813v-14.933594c13.824219 4.023438 28.84375 4.273438 43.519532 0zm-51.519532 7.058594v7.875c0 16.410156 13.347657 29.757813 29.757813 29.757813s29.761719-13.347657 29.761719-29.757813v-7.890625c24.316406 6.414062 46.539062 20.722656 62.726562 41.949219h-184.972656c15.742188-20.683594 37.640625-35.351563 62.726562-41.933594zm185.765626 242.59375c0 3.308594-2.695313 6-6 6h-300.011719c-3.308594 0-6-2.691406-6-6v-186.664063c0-3.308593 2.691406-6 6-6h300.011719c3.308593 0 6 2.691407 6 6zm0 0"/><path d="m192.734375 365.347656c-2.492187-4.320312-7.140625-7-12.128906-7h-32.433594c-4.984375 0-9.632813 2.679688-12.121094 7l-16.21875 28.085938c-2.492187 4.320312-2.492187 9.683594 0 14l16.21875 28.089844c2.488281 4.316406 7.136719 7 12.121094 7h32.433594c4.988281 0 9.632812-2.683594 12.125-7l16.21875-28.089844c2.492187-4.316406 2.492187-9.679688 0-14zm9.285156 38.085938-16.214843 28.089844c-1.070313 1.847656-3.0625 3-5.199219 3h-32.433594c-2.136719 0-4.125-1.152344-5.195313-3l-16.21875-28.089844c-1.066406-1.847656-1.066406-4.148438 0-6l16.21875-28.085938c1.070313-1.851562 3.058594-3 5.195313-3h32.433594c2.136719 0 4.128906 1.148438 5.199219 3l16.214843 28.085938c1.070313 1.851562 1.070313 4.148437 0 6zm0 0"/></g></svg>