<svg width="300" height="300" viewBox="0 0 300 300" fill="none" xmlns="http://www.w3.org/2000/svg">
<g clip-path="url(#clip0)">
<path d="M210.446 250.018C210.287 249.222 200.623 200.672 200.517 200.173C199.356 194.553 196.211 190.248 191.596 187.475C188.829 185.806 187.258 185.54 185.463 184.988C186.725 185.429 162.336 176.906 152.509 173.471C150.564 172.804 149.257 170.975 149.257 168.919V158.827C136.635 165.139 123.399 164.74 111.65 159.007V168.919C111.65 170.975 110.343 172.804 108.398 173.471C107.013 173.946 113.416 171.75 94.8513 178.116H94.8386C94.839 178.117 94.8399 178.118 94.8399 178.118L94.8386 178.121L75.4574 184.988C74.5627 185.253 72.7952 185.774 72.9077 185.741C68.2969 187.46 64.2988 190.726 62.0585 195.292C60.5076 198.438 60.9677 197.333 53.4421 235.111C50.6555 249.541 50.0403 250.592 50.3888 253.816C51.3587 262.827 60.6276 261.887 60.8785 261.996C78.6509 261.996 132.206 261.996 130.52 261.996C130.706 261.996 138.716 261.996 138.218 261.996C150.594 261.996 194.467 261.996 200.04 261.996C200.139 261.963 212.264 262.885 210.446 250.018Z" fill="#6C7D87"/>
<path d="M61.7939 250.018L71.7225 195.645C71.5849 196.305 72.4595 188.372 79.9231 183.406C71.5876 186.359 74.1711 185.177 71.6087 186.276C66.7716 188.46 63.0204 192.172 61.1708 197.402C60.4307 199.503 60.9106 197.656 53.4426 235.11C50.656 249.54 50.0412 250.593 50.3892 253.815C51.3591 262.827 60.6281 261.886 60.879 261.996C61.9838 261.996 70.8348 261.996 72.1984 261.996C64.2118 261.996 60.7608 257.325 61.7939 250.018Z" fill="#566A75"/>
<path d="M81.365 261.996C74.9019 261.996 67.4576 261.996 60.8786 261.996C60.6162 261.881 50.0513 262.943 50.3154 251.929C50.373 249.581 50.667 249.482 53.4421 235.11L53.6025 234.305H81.365V261.996Z" fill="#DD9A5E"/>
<path d="M64.6631 234.305H53.603L53.4426 235.11C50.6573 249.532 50.3734 249.577 50.3158 251.929C50.0526 262.906 60.6707 261.905 60.879 261.996C61.9838 261.996 70.8348 261.996 72.1984 261.996C64.8424 261.996 61.4867 258.126 61.6353 251.929C61.6529 251.21 61.9209 249.705 64.6631 234.305Z" fill="#D18C54"/>
<path d="M111.65 157.266C111.65 185.415 111.65 154.059 111.65 176.23H111.662V176.908C111.662 181.412 114.539 185.415 118.809 186.845C125.663 189.14 134.463 189.402 142.097 186.845C146.368 185.415 149.245 181.412 149.245 176.908V176.23H149.257C149.257 171.819 149.257 159.625 149.257 157.266C137.073 163.762 123.335 163.496 111.65 157.266Z" fill="#DD9A5E"/>
<path d="M122.984 179.994H122.97C122.969 156.426 122.969 164.279 122.969 162.633C119.062 161.85 115.252 160.505 111.649 158.584C111.649 186.734 111.649 154.059 111.65 176.23H111.662V176.908C111.662 181.412 114.538 185.415 118.809 186.845C120.921 187.552 123.151 188.063 125.467 188.359C122.588 184.45 123.028 180.293 122.984 179.994Z" fill="#D18C54"/>
<path d="M81.365 223.197C79.4894 223.197 77.9689 224.717 77.9689 226.593V261.996C80.3243 261.996 82.2324 261.996 84.7606 261.996V226.593C84.7611 224.717 83.2406 223.197 81.365 223.197Z" fill="#566A75"/>
<path d="M240.393 261.996H130.453C125.866 261.996 122.147 258.277 122.147 253.69C122.147 251.062 124.279 248.93 126.908 248.93H243.939C246.568 248.93 248.699 251.062 248.699 253.69C248.699 258.277 244.98 261.996 240.393 261.996Z" fill="#C6C6C6"/>
<path d="M143.541 253.69C143.541 251.062 145.672 248.93 148.301 248.93H126.908C124.279 248.93 122.147 251.062 122.147 253.69V253.691C122.147 258.278 125.866 261.996 130.453 261.996H151.846C147.259 261.996 143.541 258.277 143.541 253.69Z" fill="#B7B7B7"/>
<path d="M233.192 176.23H137.654C134.666 176.23 132.221 178.675 132.221 181.664V243.497C132.221 246.485 134.666 248.93 137.654 248.93H233.192C236.18 248.93 238.625 246.485 238.625 243.497V181.664C238.625 178.675 236.18 176.23 233.192 176.23Z" fill="#EDEDED"/>
<path d="M143.541 243.497V181.664C143.541 178.675 145.986 176.23 148.974 176.23H137.655C134.667 176.23 132.222 178.675 132.222 181.664V243.497C132.222 246.485 134.667 248.93 137.655 248.93H148.974C145.986 248.93 143.541 246.485 143.541 243.497Z" fill="#DADADA"/>
<path d="M185.425 220.427C189.76 220.427 193.273 216.914 193.273 212.579C193.273 208.245 189.76 204.731 185.425 204.731C181.091 204.731 177.577 208.245 177.577 212.579C177.577 216.914 181.091 220.427 185.425 220.427Z" fill="#DADADA"/>
<path d="M185.427 204.738C179.443 204.729 175.588 211.242 178.627 216.504C181.666 221.769 189.233 221.683 192.217 216.498C186.18 216.49 182.411 209.98 185.427 204.738Z" fill="#C6C6C6"/>
<path d="M129.43 37.0537C100.18 37.1653 75.486 61.0434 75.486 91.3798V111.968H184.153C184.153 92.4577 184.153 98.6219 184.153 81.1673C184.153 60.1294 171.21 55.2831 171.21 55.2831C155.114 35.4361 129.451 37.0532 129.451 37.0532" fill="#4C4846"/>
<path d="M136.77 37.3782C103.62 33.6046 76.644 58.6249 75.5321 89.2389C75.4464 91.4402 75.504 90.6166 75.486 111.968H88.4292V91.38C88.4292 63.2761 109.703 40.3489 136.77 37.3782Z" fill="#3D3938"/>
<path d="M88.8686 105.503C82.0536 103.074 74.6554 107.591 74.6554 114.18C74.6554 120.767 82.0527 125.286 88.8686 122.857V105.503Z" fill="#DD9A5E"/>
<path d="M170.771 105.503C177.586 103.074 184.984 107.591 184.984 114.18C184.984 120.767 177.587 125.286 170.771 122.857V105.503Z" fill="#DD9A5E"/>
<path d="M75.6507 110.19C71.6697 117.747 80.0514 125.999 88.8686 122.857V114.877C83.7266 116.709 77.9772 114.607 75.6507 110.19Z" fill="#D18C54"/>
<path d="M170.771 114.877V122.857C179.587 125.999 187.969 117.748 183.989 110.19C182.324 113.351 175.915 116.71 170.771 114.877Z" fill="#D18C54"/>
<path d="M169.343 88.3093C170.398 88.4112 171.21 89.287 171.21 90.3474C171.21 125.196 171.233 122.565 171.152 124.185C170.615 134.784 166.082 144.516 158.709 151.71C132.873 176.9 89.7611 159.035 88.4643 123.701C88.4037 122.143 88.4291 104.094 88.4291 104.145C88.4291 96.0291 95.6313 89.8372 103.664 90.997C116.314 92.8229 134.78 92.1136 150.892 78.3411C152.547 76.9261 155.06 77.3831 156.117 79.2873C158.114 82.8825 162.083 87.6088 169.343 88.3093Z" fill="#EDAE6B"/>
<path d="M99.7895 123.701C99.7376 122.365 99.7486 97.9149 99.753 91.0081C93.435 91.956 88.4296 97.3801 88.4296 104.145C88.4296 104.094 88.4041 122.143 88.4648 123.701C89.4206 149.753 113.108 166.304 135.843 163.108C117.176 160.527 100.586 145.415 99.7895 123.701Z" fill="#DD9A5E"/>
</g>
<defs>
<clipPath id="clip0">
<rect width="225" height="225" fill="white" transform="translate(37 37)"/>
</clipPath>
</defs>
</svg>
