<?xml version="1.0" encoding="iso-8859-1"?>
<!-- Generator: Adobe Illustrator 19.0.0, SVG Export Plug-In . SVG Version: 6.00 Build 0)  -->
<svg version="1.1" id="Capa_1" xmlns="http://www.w3.org/2000/svg" xmlns:xlink="http://www.w3.org/1999/xlink" x="0px" y="0px"
	 viewBox="0 0 504.123 504.123" style="enable-background:new 0 0 504.123 504.123;" xml:space="preserve">
<circle style="fill:#E0E4E8;" cx="255.212" cy="252.849" r="181.957"/>
<path style="fill:#FFFFFF;" d="M389.12,274.905v-43.323l-32.295-3.938c-2.363-10.24-6.302-20.48-11.815-29.145l19.692-25.206
	l-29.932-30.72l-25.206,19.692c-8.665-5.514-18.905-9.452-29.145-11.815l-3.938-32.295h-43.323l-3.938,32.295
	c-10.24,2.363-20.48,6.302-29.145,11.815l-25.206-19.692l-30.72,30.72l19.692,25.206c-5.514,8.665-9.452,18.905-11.815,29.145
	l-32.295,3.938v43.323l32.295,3.938c2.363,10.24,6.302,20.48,11.815,29.145l-19.692,25.206l30.72,30.72l25.206-19.692
	c8.665,5.514,18.905,9.452,29.145,11.815l3.938,32.295h43.323l3.938-32.295c10.24-2.363,20.48-6.302,29.145-11.815l25.206,19.692
	l30.72-30.72l-19.692-25.206c5.514-8.665,9.452-18.905,11.815-29.145L389.12,274.905z"/>
<path style="fill:#183651;" d="M276.48,395.422h-43.323c-3.938,0-7.089-3.151-7.877-7.089l-3.151-26.782
	c-7.089-2.363-14.178-5.514-21.268-8.665l-21.268,16.542c-3.151,2.363-7.877,2.363-10.24-0.788l-30.72-30.72
	c-3.151-3.151-3.151-7.089-0.788-10.24l16.542-21.268c-3.938-7.089-6.302-14.178-8.665-21.268l-26.782-3.151
	c-3.938-0.788-7.089-3.938-7.089-7.877v-43.323c0-3.938,3.151-7.089,7.089-7.877l26.782-3.151
	c2.363-7.089,5.514-14.178,8.665-21.268l-16.542-21.268c-2.363-3.151-2.363-7.877,0.788-10.24l30.72-30.72
	c3.151-3.151,7.089-3.151,10.24-0.788l21.268,18.117c7.089-3.938,14.178-6.302,21.268-8.665l3.151-26.782
	c0.788-3.938,3.938-7.089,7.877-7.089h43.323c3.938,0,7.089,3.151,7.877,7.089l3.151,26.782c7.089,2.363,14.178,5.514,21.268,8.665
	l21.268-16.542c3.151-2.363,7.877-2.363,10.24,0.788l30.72,30.72c3.151,3.151,3.151,7.089,0.788,10.24l-16.542,21.268
	c3.938,7.089,6.302,14.178,8.665,21.268l26.782,3.151c3.938,0.788,7.089,3.938,7.089,7.877v43.323c0,3.938-3.151,7.089-7.089,7.877
	l-26.782,3.151c-2.363,7.089-5.514,14.178-8.665,21.268l16.542,21.268c2.363,3.151,2.363,7.877-0.788,10.24l-30.72,30.72
	c-3.151,3.151-7.089,3.151-10.24,0.788l-21.268-16.542c-7.089,3.938-14.178,6.302-21.268,8.665l-3.151,26.782
	C283.569,392.271,280.418,395.422,276.48,395.422z M240.246,379.668h29.145l3.151-25.206c0-3.151,2.363-5.514,5.514-6.302
	c9.452-2.363,18.905-6.302,26.782-11.028c3.151-1.575,6.302-1.575,8.665,0.788l19.692,15.754l20.48-20.48l-15.754-19.692
	c-2.363-2.363-2.363-6.302-0.788-8.665c4.726-8.665,8.665-17.329,11.028-26.782c0.788-3.151,3.151-5.514,6.302-5.514l25.206-3.151
	v-29.145l-25.206-3.151c-3.151,0-5.514-2.363-6.302-5.514c-2.363-9.452-6.302-18.905-11.028-26.782
	c-1.575-3.151-1.575-6.302,0.788-8.665l15.754-19.692L333.982,153.6l-19.692,15.754c-2.363,2.363-6.302,2.363-8.665,0.788
	c-8.665-4.726-17.329-8.665-26.782-11.028c-3.151-0.788-5.514-3.151-5.514-6.302l-3.151-25.206h-29.145l-3.151,25.206
	c0,3.151-2.363,5.514-5.514,6.302c-9.452,2.363-18.905,6.302-26.782,11.028c-3.151,1.575-6.302,1.575-8.665-0.788L177.231,153.6
	l-20.48,20.48l15.754,19.692c2.363,2.363,2.363,6.302,0.788,8.665c-4.726,8.665-8.665,17.329-11.028,26.782
	c-0.788,3.151-3.151,5.514-6.302,5.514l-25.206,3.151v29.145l25.206,3.151c3.151,0,5.514,2.363,6.302,5.514
	c2.363,9.452,6.302,18.905,11.028,26.782c1.575,3.151,1.575,6.302-0.788,8.665l-15.754,19.692l20.48,20.48l19.692-15.754
	c2.363-2.363,6.302-2.363,8.665-0.788c8.665,4.726,17.329,8.665,26.782,11.028c3.151,0.788,5.514,3.151,5.514,6.302L240.246,379.668
	z"/>
<circle style="fill:#F06151;" cx="255.212" cy="252.849" r="75.618"/>
<circle style="fill:#FFFFFF;" cx="255.212" cy="252.849" r="25.994"/>
<path style="fill:#183651;" d="M255.212,287.508c-18.905,0-33.871-14.966-33.871-33.871s14.966-33.871,33.871-33.871
	s33.871,14.966,33.871,33.871C289.083,271.754,273.329,287.508,255.212,287.508z M255.212,234.732
	c-10.24,0-18.117,8.665-18.117,18.117c0,9.452,8.665,18.117,18.117,18.117c10.24,0,18.117-8.665,18.117-18.117
	C273.329,243.397,265.452,234.732,255.212,234.732z"/>
<path id="SVGCleanerId_1" style="fill:#183651;" d="M92.16,452.135c-2.363-1.575-3.938-3.151-6.302-5.514l10.24-11.815
	c1.575,1.575,3.938,3.151,5.514,4.726L92.16,452.135z"/>
<path id="SVGCleanerId_2" style="fill:#183651;" d="M197.711,497.034c-4.726-0.788-9.452-1.575-14.178-2.363l3.151-14.966
	c4.726,0.788,8.665,1.575,13.391,2.363L197.711,497.034z M169.354,492.308c-4.726-1.575-9.452-2.363-14.178-3.938l4.726-14.966
	c3.938,1.575,8.665,3.151,12.603,3.938L169.354,492.308z M141.785,482.068c-4.726-1.575-8.665-3.938-13.391-6.302l7.089-14.178
	c3.938,2.363,7.877,3.938,11.815,5.514L141.785,482.068z M115.791,468.677c-3.938-2.363-7.877-5.514-11.815-7.877l9.452-12.603
	c3.938,2.363,7.089,4.726,11.028,7.089L115.791,468.677z"/>
<path id="SVGCleanerId_3" style="fill:#183651;" d="M220.554,498.609c-2.363,0-5.514,0-7.877,0l0.788-15.754
	c2.363,0,4.726,0,7.089,0V498.609z"/>
<path id="SVGCleanerId_4" style="fill:#183651;" d="M85.858,446.622c-41.748-37.809-65.378-92.16-65.378-148.086h15.754
	c0,51.988,22.055,101.612,60.652,136.271L85.858,446.622z"/>
<polygon style="fill:#183651;" points="12.603,332.406 0,322.954 26.782,287.508 62.228,314.289 52.775,326.892 29.932,309.563 "/>
<path id="SVGCleanerId_6" style="fill:#183651;" d="M408.025,69.317c-2.363-2.363-3.938-3.938-6.302-5.514l10.24-11.815
	c2.363,1.575,3.938,3.151,6.302,5.514L408.025,69.317z"/>
<path id="SVGCleanerId_7" style="fill:#183651;" d="M391.483,55.926c-3.938-2.363-7.089-4.726-11.028-7.089l7.877-13.391
	c3.938,2.363,7.877,5.514,11.815,7.877L391.483,55.926z M368.64,41.748c-3.938-2.363-7.877-3.938-11.815-5.514l6.302-14.178
	c4.726,1.575,8.665,3.938,13.391,6.302L368.64,41.748z M344.222,31.508c-3.938-1.575-8.665-3.151-12.603-3.938l3.151-15.754
	c4.726,1.575,9.452,2.363,14.178,3.938L344.222,31.508z M318.228,24.418c-4.726-0.788-8.665-1.575-13.391-2.363l1.575-15.754
	c4.726,0.788,9.452,1.575,14.178,2.363L318.228,24.418z"/>
<path id="SVGCleanerId_8" style="fill:#183651;" d="M291.446,21.268c-2.363,0-4.726,0-7.089,0V5.514c2.363,0,5.514,0,7.877,0
	L291.446,21.268z"/>
<path id="SVGCleanerId_9" style="fill:#183651;" d="M483.643,205.588h-15.754c0-51.988-22.055-101.612-60.652-136.271l10.24-11.815
	C460.012,95.311,483.643,149.662,483.643,205.588z"/>
<polygon style="fill:#183651;" points="477.342,216.615 441.895,189.834 451.348,177.231 474.191,194.56 491.52,171.717 
	504.123,181.169 "/>
<g>
	<path id="SVGCleanerId_1_1_" style="fill:#183651;" d="M92.16,452.135c-2.363-1.575-3.938-3.151-6.302-5.514l10.24-11.815
		c1.575,1.575,3.938,3.151,5.514,4.726L92.16,452.135z"/>
</g>
<g>
	<path id="SVGCleanerId_2_1_" style="fill:#183651;" d="M197.711,497.034c-4.726-0.788-9.452-1.575-14.178-2.363l3.151-14.966
		c4.726,0.788,8.665,1.575,13.391,2.363L197.711,497.034z M169.354,492.308c-4.726-1.575-9.452-2.363-14.178-3.938l4.726-14.966
		c3.938,1.575,8.665,3.151,12.603,3.938L169.354,492.308z M141.785,482.068c-4.726-1.575-8.665-3.938-13.391-6.302l7.089-14.178
		c3.938,2.363,7.877,3.938,11.815,5.514L141.785,482.068z M115.791,468.677c-3.938-2.363-7.877-5.514-11.815-7.877l9.452-12.603
		c3.938,2.363,7.089,4.726,11.028,7.089L115.791,468.677z"/>
</g>
<g>
	<path id="SVGCleanerId_3_1_" style="fill:#183651;" d="M220.554,498.609c-2.363,0-5.514,0-7.877,0l0.788-15.754
		c2.363,0,4.726,0,7.089,0V498.609z"/>
</g>
<g>
	<path id="SVGCleanerId_4_1_" style="fill:#183651;" d="M85.858,446.622c-41.748-37.809-65.378-92.16-65.378-148.086h15.754
		c0,51.988,22.055,101.612,60.652,136.271L85.858,446.622z"/>
</g>
<polygon style="fill:#183651;" points="12.603,332.406 0,322.954 26.782,287.508 62.228,314.289 52.775,326.892 29.932,309.563 "/>
<g>
	<path id="SVGCleanerId_6_1_" style="fill:#183651;" d="M408.025,69.317c-2.363-2.363-3.938-3.938-6.302-5.514l10.24-11.815
		c2.363,1.575,3.938,3.151,6.302,5.514L408.025,69.317z"/>
</g>
<g>
	<path id="SVGCleanerId_7_1_" style="fill:#183651;" d="M391.483,55.926c-3.938-2.363-7.089-4.726-11.028-7.089l7.877-13.391
		c3.938,2.363,7.877,5.514,11.815,7.877L391.483,55.926z M368.64,41.748c-3.938-2.363-7.877-3.938-11.815-5.514l6.302-14.178
		c4.726,1.575,8.665,3.938,13.391,6.302L368.64,41.748z M344.222,31.508c-3.938-1.575-8.665-3.151-12.603-3.938l3.151-15.754
		c4.726,1.575,9.452,2.363,14.178,3.938L344.222,31.508z M318.228,24.418c-4.726-0.788-8.665-1.575-13.391-2.363l1.575-15.754
		c4.726,0.788,9.452,1.575,14.178,2.363L318.228,24.418z"/>
</g>
<g>
	<path id="SVGCleanerId_8_1_" style="fill:#183651;" d="M291.446,21.268c-2.363,0-4.726,0-7.089,0V5.514c2.363,0,5.514,0,7.877,0
		L291.446,21.268z"/>
</g>
<g>
	<path id="SVGCleanerId_9_1_" style="fill:#183651;" d="M483.643,205.588h-15.754c0-51.988-22.055-101.612-60.652-136.271
		l10.24-11.815C460.012,95.311,483.643,149.662,483.643,205.588z"/>
</g>
<polygon style="fill:#183651;" points="477.342,216.615 441.895,189.834 451.348,177.231 474.191,194.56 491.52,171.717 
	504.123,181.169 "/>
<path id="SVGCleanerId_11" style="fill:#183651;" d="M63.803,102.4L51.988,92.16c1.575-2.363,3.151-3.938,5.514-6.302l11.815,10.24
	C66.954,98.462,65.378,100.037,63.803,102.4z"/>
<path id="SVGCleanerId_12" style="fill:#183651;" d="M22.055,199.286l-15.754-1.575c0.788-4.726,1.575-9.452,2.363-14.178
	l14.966,3.151C23.631,190.622,22.843,195.348,22.055,199.286z M27.569,173.292l-15.754-3.938c1.575-4.726,2.363-9.452,3.938-14.178
	l14.966,4.726C29.932,164.628,28.357,168.566,27.569,173.292z M36.234,147.298l-14.178-6.302c1.575-4.726,3.938-8.665,6.302-13.391
	l14.178,7.089C39.385,139.422,37.809,143.36,36.234,147.298z M48.049,123.668l-13.391-7.877c2.363-3.938,5.514-7.877,7.877-11.815
	l12.603,9.452C53.563,116.578,50.412,119.729,48.049,123.668z"/>
<path id="SVGCleanerId_13" style="fill:#183651;" d="M21.268,220.554H5.514c0-2.363,0-5.514,0-7.877l15.754,0.788
	C21.268,215.04,21.268,218.191,21.268,220.554z"/>
<path id="SVGCleanerId_14" style="fill:#183651;" d="M69.317,96.098l-11.815-10.24c37.809-41.748,92.16-65.378,148.086-65.378
	v15.754C153.6,36.234,103.975,58.289,69.317,96.098z"/>
<polygon style="fill:#183651;" points="189.834,62.228 177.231,52.775 194.56,29.932 171.717,12.603 181.169,0 216.615,26.782 "/>
<path id="SVGCleanerId_16" style="fill:#183651;" d="M446.622,418.265l-11.815-10.24c1.575-1.575,3.151-3.938,4.726-5.514
	l11.815,10.24C450.56,414.326,448.197,415.902,446.622,418.265z"/>
<path id="SVGCleanerId_17" style="fill:#183651;" d="M460.8,400.935l-12.603-9.452c2.363-3.938,4.726-7.089,7.089-11.028
	l13.391,7.877C466.314,392.271,463.951,396.997,460.8,400.935z M476.554,375.729l-14.178-7.089
	c2.363-3.938,3.938-7.877,5.514-11.815l14.178,6.302C480.492,367.065,478.129,371.791,476.554,375.729z M487.582,348.948
	l-14.966-4.726c1.575-3.938,3.151-8.665,3.938-12.603l15.754,3.151C490.732,339.495,489.157,344.222,487.582,348.948z
	 M495.458,320.591l-14.966-3.151c0.788-4.726,1.575-8.665,2.363-13.391l15.754,1.575
	C497.034,311.138,496.246,315.865,495.458,320.591z"/>
<path id="SVGCleanerId_18" style="fill:#183651;" d="M498.609,291.446l-15.754-0.788c0-2.363,0-4.726,0-7.089h15.754
	C498.609,286.72,498.609,289.083,498.609,291.446z"/>
<path id="SVGCleanerId_19" style="fill:#183651;" d="M298.535,483.643v-15.754c51.988,0,101.612-22.055,136.271-60.652l11.815,10.24
	C408.812,460.012,354.462,483.643,298.535,483.643z"/>
<polygon style="fill:#183651;" points="322.954,504.123 287.508,477.342 314.289,441.895 326.892,451.348 309.563,474.191 
	332.406,491.52 "/>
<g>
	<path id="SVGCleanerId_11_1_" style="fill:#183651;" d="M63.803,102.4L51.988,92.16c1.575-2.363,3.151-3.938,5.514-6.302
		l11.815,10.24C66.954,98.462,65.378,100.037,63.803,102.4z"/>
</g>
<g>
	<path id="SVGCleanerId_12_1_" style="fill:#183651;" d="M22.055,199.286l-15.754-1.575c0.788-4.726,1.575-9.452,2.363-14.178
		l14.966,3.151C23.631,190.622,22.843,195.348,22.055,199.286z M27.569,173.292l-15.754-3.938c1.575-4.726,2.363-9.452,3.938-14.178
		l14.966,4.726C29.932,164.628,28.357,168.566,27.569,173.292z M36.234,147.298l-14.178-6.302c1.575-4.726,3.938-8.665,6.302-13.391
		l14.178,7.089C39.385,139.422,37.809,143.36,36.234,147.298z M48.049,123.668l-13.391-7.877c2.363-3.938,5.514-7.877,7.877-11.815
		l12.603,9.452C53.563,116.578,50.412,119.729,48.049,123.668z"/>
</g>
<g>
	<path id="SVGCleanerId_13_1_" style="fill:#183651;" d="M21.268,220.554H5.514c0-2.363,0-5.514,0-7.877l15.754,0.788
		C21.268,215.04,21.268,218.191,21.268,220.554z"/>
</g>
<g>
	<path id="SVGCleanerId_14_1_" style="fill:#183651;" d="M69.317,96.098l-11.815-10.24c37.809-41.748,92.16-65.378,148.086-65.378
		v15.754C153.6,36.234,103.975,58.289,69.317,96.098z"/>
</g>
<polygon style="fill:#183651;" points="189.834,62.228 177.231,52.775 194.56,29.932 171.717,12.603 181.169,0 216.615,26.782 "/>
<g>
	<path id="SVGCleanerId_16_1_" style="fill:#183651;" d="M446.622,418.265l-11.815-10.24c1.575-1.575,3.151-3.938,4.726-5.514
		l11.815,10.24C450.56,414.326,448.197,415.902,446.622,418.265z"/>
</g>
<g>
	<path id="SVGCleanerId_17_1_" style="fill:#183651;" d="M460.8,400.935l-12.603-9.452c2.363-3.938,4.726-7.089,7.089-11.028
		l13.391,7.877C466.314,392.271,463.951,396.997,460.8,400.935z M476.554,375.729l-14.178-7.089
		c2.363-3.938,3.938-7.877,5.514-11.815l14.178,6.302C480.492,367.065,478.129,371.791,476.554,375.729z M487.582,348.948
		l-14.966-4.726c1.575-3.938,3.151-8.665,3.938-12.603l15.754,3.151C490.732,339.495,489.157,344.222,487.582,348.948z
		 M495.458,320.591l-14.966-3.151c0.788-4.726,1.575-8.665,2.363-13.391l15.754,1.575
		C497.034,311.138,496.246,315.865,495.458,320.591z"/>
</g>
<g>
	<path id="SVGCleanerId_18_1_" style="fill:#183651;" d="M498.609,291.446l-15.754-0.788c0-2.363,0-4.726,0-7.089h15.754
		C498.609,286.72,498.609,289.083,498.609,291.446z"/>
</g>
<g>
	<path id="SVGCleanerId_19_1_" style="fill:#183651;" d="M298.535,483.643v-15.754c51.988,0,101.612-22.055,136.271-60.652
		l11.815,10.24C408.812,460.012,354.462,483.643,298.535,483.643z"/>
</g>
<polygon style="fill:#183651;" points="322.954,504.123 287.508,477.342 314.289,441.895 326.892,451.348 309.563,474.191 
	332.406,491.52 "/>
<g>
</g>
<g>
</g>
<g>
</g>
<g>
</g>
<g>
</g>
<g>
</g>
<g>
</g>
<g>
</g>
<g>
</g>
<g>
</g>
<g>
</g>
<g>
</g>
<g>
</g>
<g>
</g>
<g>
</g>
</svg>
